<?xml version="1.0" encoding="iso-8859-1"?>
<!-- Generator: Adobe Illustrator 19.0.0, SVG Export Plug-In . SVG Version: 6.00 Build 0)  -->
<svg version="1.1" id="Layer_1" xmlns="http://www.w3.org/2000/svg" xmlns:xlink="http://www.w3.org/1999/xlink" x="0px" y="0px"
	 viewBox="0 0 512 512" style="enable-background:new 0 0 512 512;" xml:space="preserve">
<g>
	<g>
		<g>
			<path d="M448,192h-21.333v-21.333C426.667,76.565,350.101,0,256,0c-46.251,0-89.536,18.197-121.899,51.243
				c-8.256,8.405-8.128,21.909,0.299,30.165c8.448,8.256,21.952,8.128,30.165-0.32C188.864,56.32,221.312,42.667,256,42.667
				c70.592,0,128,57.408,128,128V192H64c-11.797,0-21.333,9.557-21.333,21.333v149.333h426.667V213.333
				C469.333,201.557,459.797,192,448,192z M192,320c0,11.776-9.536,21.333-21.333,21.333c-11.797,0-21.333-9.557-21.333-21.333
				v-42.667c0-11.776,9.536-21.333,21.333-21.333c11.797,0,21.333,9.557,21.333,21.333V320z M277.333,320
				c0,11.776-9.536,21.333-21.333,21.333c-11.797,0-21.333-9.557-21.333-21.333v-42.667c0-11.776,9.536-21.333,21.333-21.333
				c11.797,0,21.333,9.557,21.333,21.333V320z M362.667,320c0,11.776-9.536,21.333-21.333,21.333
				C329.536,341.333,320,331.776,320,320v-42.667c0-11.776,9.536-21.333,21.333-21.333c11.797,0,21.333,9.557,21.333,21.333V320z"/>
			<path d="M42.667,448c0,35.285,28.715,64,64,64h298.667c35.285,0,64-28.715,64-64v-42.667H42.667V448z"/>
		</g>
	</g>
</g>
<g>
</g>
<g>
</g>
<g>
</g>
<g>
</g>
<g>
</g>
<g>
</g>
<g>
</g>
<g>
</g>
<g>
</g>
<g>
</g>
<g>
</g>
<g>
</g>
<g>
</g>
<g>
</g>
<g>
</g>
</svg>
