<?xml version="1.0" encoding="utf-8"?>
<!-- Generator: Adobe Illustrator 25.4.1, SVG Export Plug-In . SVG Version: 6.00 Build 0)  -->
<svg version="1.1" id="Layer_1" xmlns="http://www.w3.org/2000/svg" xmlns:xlink="http://www.w3.org/1999/xlink" x="0px" y="0px"
	 viewBox="0 0 90 90" style="enable-background:new 0 0 90 90;" xml:space="preserve">
<path d="M52.5,9.3c15.5,0,28.1,12.6,28.1,28.1c0,1,0.8,1.8,1.8,1.8c1,0,1.8-0.8,1.8-1.8c0-17.6-14.2-31.8-31.8-31.8
	c-1,0-1.8,0.8-1.8,1.8C50.7,8.5,51.5,9.3,52.5,9.3z"/>
<path d="M52.5,22.5c8.2,0,14.9,6.7,14.9,14.9c0,1,0.8,1.8,1.8,1.8c1,0,1.8-0.8,1.8-1.8c0,0,0,0,0,0c0-10.3-8.3-18.6-18.6-18.6
	c-1,0-1.8,0.8-1.8,1.8C50.7,21.7,51.5,22.5,52.5,22.5z"/>
<path d="M20.5,69.5C31.3,80.3,44.6,87.4,58,89.4c10.5,1.6,20.2,0,28.1-4.6c2.1-1.2,3.5-3.3,3.8-5.7c0.3-3.8-1.1-7.5-3.9-10.1
	L74.9,57.8c-2.4-2.5-5.7-3.9-9.1-3.9c-2.2,0-4.4,1-5.9,2.6l-7.1,7.9C41,58.5,31.5,48.9,25.6,37.1l7.9-7.1c1.6-1.5,2.6-3.6,2.6-5.9
	c0-3.4-1.4-6.7-3.9-9.1L21,3.9C18.4,1.1,14.7-0.3,10.9,0C8.5,0.3,6.4,1.7,5.1,3.8c-4.6,8-6.1,17.7-4.6,28.1
	C2.6,45.3,9.7,58.7,20.5,69.5z M8.3,5.6c0.6-1.1,1.8-1.8,3.1-1.9c2.7-0.2,5.2,0.9,7,2.8l11.2,11.2c1.8,1.7,2.8,4,2.9,6.4
	c0,1.2-0.5,2.4-1.4,3.2l-9.9,8.9l0.6,1.2c3.1,6.7,7.4,12.9,12.7,18.1c5.2,5.3,11.4,9.6,18.1,12.7l1.2,0.6l8.9-9.9
	c0.8-0.9,2-1.4,3.2-1.4c2.4,0.1,4.7,1.1,6.4,2.9l11.2,11.2c2,1.8,3,4.4,2.8,7c-0.1,1.3-0.8,2.4-1.9,3.1c-7.2,4.1-16.1,5.6-25.8,4.1
	C46,83.9,33.3,77.2,23.1,66.9C12.8,56.6,6.1,44,4.2,31.4C2.8,21.8,4.2,12.8,8.3,5.6z"/>
</svg>
